# xmcd
#
# Track frame offsets: 
#        150
#        22942
#        45905
#        64085
#        85120
#        105600
#        130207
#        153462
#        170025
#        190517
#        211405
#        232002
#        249770
#        267132
#        288365
#        311910
#
# Disc length: 4418 seconds
#
# Revision: 0
# Processed by: cddbd v1.5.2PL0 Copyright (c) Steve Scherf et al.
# Submitted via: ExactAudioCopy v1.0b3
#
DISCID=d2114010
DTITLE=张信哲 - 直觉
DYEAR=1998
DGENRE=Pop
TTITLE0=信
TTITLE1=我相信
TTITLE2=爱的证据
TTITLE3=很快
TTITLE4=绝不再失去你
TTITLE5=直觉
TTITLE6=雨后
TTITLE7=男人说法
TTITLE8=两个小孩子
TTITLE9=心情卡片
TTITLE10=用情
TTITLE11=没有人知的故事
TTITLE12=背叛
TTITLE13=太想爱你
TTITLE14=宽容
TTITLE15=游戏
EXTD=
EXTT0=
EXTT1=
EXTT2=
EXTT3=
EXTT4=
EXTT5=
EXTT6=
EXTT7=
EXTT8=
EXTT9=
EXTT10=
EXTT11=
EXTT12=
EXTT13=
EXTT14=
EXTT15=
PLAYORDER=
